<svg width="61" height="60" viewBox="0 0 61 60" fill="none" xmlns="http://www.w3.org/2000/svg">
<g id="shipping" clip-path="url(#clip0_117_629)">
<path id="Vector" d="M56.0146 31.1019V3.77964C56.0146 2.80489 55.2243 2.01465 54.2496 2.01465H6.96174C5.98699 2.01465 5.19675 2.80489 5.19675 3.77964V33.28C4.34531 33.404 3.51295 33.7346 2.77659 34.2812C0.455278 35.9273 -0.0937517 39.6109 1.85068 41.8827L9.80055 51.5204C14.7216 57.2798 19.9491 57.9854 27.7205 57.9854C34.3894 57.9854 37.371 58.0148 43.1831 56.6905L48.8426 55.3369C49.7603 56.6184 51.2171 57.4485 52.8549 57.4485H55.6429C58.4129 57.4485 60.6666 55.0744 60.6666 52.1561V36.3784C60.6667 33.592 58.6116 31.3031 56.0146 31.1019ZM48.0813 34.7326L45.7296 33.5382C41.863 31.5865 37.3925 31.5142 33.4648 33.3403C32.3932 33.7618 30.056 35.1759 28.8437 35.1286H20.6834C17.9766 35.1286 15.7743 37.3307 15.7743 40.0376V41.3247C15.7591 41.3087 15.7433 41.2936 15.7283 41.2773L9.90091 34.9519C9.54827 34.5692 9.15209 34.2489 8.72684 33.9919V16.481H23.1707V22.951C23.1707 23.9257 23.9609 24.7159 24.9357 24.7159H36.0729C37.0476 24.7159 37.8379 23.9257 37.8379 22.951V16.481H52.4847V31.1018C50.4225 31.2611 48.7029 32.7364 48.0813 34.7326ZM26.7006 16.481H34.3078V21.186H26.7006V16.481ZM52.4846 12.951H37.8379V5.54463H52.4847V12.951H52.4846ZM34.3079 5.54463V12.9511H26.7007V5.54463H34.3079ZM23.1706 5.54463V12.9511H8.72673V5.54463H23.1706ZM42.3639 53.2568C36.9948 54.4865 33.7612 54.4367 27.7838 54.4367C20.4885 54.4367 16.9636 54.3188 12.5238 49.274L4.57394 39.6363C3.19113 37.8357 5.69577 35.7101 7.30473 37.3435L13.1321 43.669C14.6723 45.2941 16.6103 46.1885 18.9991 46.2411H35.1556C36.1303 46.2411 36.9206 45.4508 36.9206 44.4761C36.9206 43.5013 36.1303 42.7111 35.1556 42.7111H19.3042V40.0373C19.3042 39.277 19.9228 38.6583 20.6832 38.6583H28.8436C30.682 38.79 33.3355 37.2549 34.9529 36.541C37.8946 35.1733 41.2429 35.2274 44.135 36.6872L47.8314 38.5646V51.9489L42.3639 53.2568ZM57.1367 52.156C57.1367 53.1278 56.4666 53.9184 55.643 53.9184H52.855C52.0313 53.9184 51.3613 53.1278 51.3613 52.156V36.3784C51.3613 35.4066 52.0315 34.6159 52.855 34.6159H55.643C56.4666 34.6159 57.1367 35.4065 57.1367 36.3784V52.156Z" fill="#242424"/>
</g>
<defs>
<clipPath id="clip0_117_629">
<rect width="60" height="60" fill="white" transform="translate(0.666687)"/>
</clipPath>
</defs>
</svg>
